<svg xmlns="http://www.w3.org/2000/svg" width="24" height="24" fill="none" viewBox="0 0 24 24">
    <path stroke="current" stroke-linecap="round" stroke-linejoin="round" stroke-width="1.5" d="M14.828 9.922C15.578 9.195 16 8.21 16 7.183s-.421-2.012-1.172-2.738C14.078 3.719 13.061 3.31 12 3.31c-1.06 0-2.078.408-2.828 1.134S8 6.156 8 7.183s.421 2.012 1.172 2.739c.75.726 1.767 1.134 2.828 1.134 1.06 0 2.078-.408 2.828-1.134zM7.05 15.945c1.313-1.27 3.093-1.985 4.95-1.985 1.857 0 3.637.714 4.95 1.985C18.263 17.216 19 18.94 19 20.737H5c0-1.797.737-3.52 2.05-4.792z"/>
</svg>
