<svg xmlns="http://www.w3.org/2000/svg" width="24" height="24" fill="none" viewBox="0 0 24 24">
    <path stroke="current" stroke-linecap="round" stroke-linejoin="round" stroke-width="1.5" d="M3 12l2-2m0 0l7-7 7 7M5 10v10c0 .265.105.52.293.707.187.188.442.293.707.293h3m10-11l2 2m-2-2v10c0 .265-.105.52-.293.707-.187.188-.442.293-.707.293h-3m-6 0c.265 0 .52-.105.707-.293.188-.187.293-.442.293-.707v-4c0-.265.105-.52.293-.707.187-.188.442-.293.707-.293h2c.265 0 .52.105.707.293.188.187.293.442.293.707v4c0 .265.105.52.293.707.187.188.442.293.707.293m-6 0h6"/>
</svg>
