<svg xmlns="http://www.w3.org/2000/svg" width="24" height="24" fill="none" viewBox="0 0 24 24">
    <path stroke="current" stroke-linecap="round" stroke-linejoin="round" stroke-width="1.5" d="M4.293 4.293C4.105 4.48 4 4.735 4 5v2c0 .265.105.52.293.707C4.48 7.895 4.735 8 5 8h14c.265 0 .52-.105.707-.293C19.895 7.52 20 7.265 20 7V5c0-.265-.105-.52-.293-.707C19.52 4.105 19.265 4 19 4H5c-.265 0-.52.105-.707.293zM4.293 12.293C4.105 12.48 4 12.735 4 13v6c0 .265.105.52.293.707.187.188.442.293.707.293h6c.265 0 .52-.105.707-.293.188-.187.293-.442.293-.707v-6c0-.265-.105-.52-.293-.707C11.52 12.105 11.265 12 11 12H5c-.265 0-.52.105-.707.293zM16.293 12.293c-.188.187-.293.442-.293.707v6c0 .265.105.52.293.707.187.188.442.293.707.293h2c.265 0 .52-.105.707-.293.188-.187.293-.442.293-.707v-6c0-.265-.105-.52-.293-.707C19.52 12.105 19.265 12 19 12h-2c-.265 0-.52.105-.707.293z"/>
</svg>
