<svg xmlns="http://www.w3.org/2000/svg" width="24" height="24" fill="none" viewBox="0 0 24 24">
    <path stroke="current" stroke-linecap="round" stroke-linejoin="round" stroke-width="1.5" d="M9 5H7c-.53 0-1.04.21-1.414.586C5.21 5.96 5 6.47 5 7v12c0 .53.21 1.04.586 1.414C5.96 20.79 6.47 21 7 21h10c.53 0 1.04-.21 1.414-.586C18.79 20.04 19 19.53 19 19V7c0-.53-.21-1.04-.586-1.414C18.04 5.21 17.53 5 17 5h-2M9 5c0 .53.21 1.04.586 1.414C9.96 6.79 10.47 7 11 7h2c.53 0 1.04-.21 1.414-.586C14.79 6.04 15 5.53 15 5M9 5c0-.53.21-1.04.586-1.414C9.96 3.21 10.47 3 11 3h2c.53 0 1.04.21 1.414.586C14.79 3.96 15 4.47 15 5m-6 9l2 2 4-4"/>
</svg>
